
<svg viewBox="0 0 203 42" xmlns="http://www.w3.org/2000/svg">
    <path d="M156.196 4.29606H156.485V26.4676H152.159V4.29606H156.197H156.196ZM179.831 18.0981H180.121V21.9056H177.607V26.3235H173.799V21.9056H161.304V18.1609L161.331 18.1029L167.55 4.58134L167.628 4.41305H177.608V18.0981H179.831ZM173.799 18.0981V8.23325H170.051L165.529 18.0981H173.799ZM203.099 15.39C203.099 22.7606 199.927 26.4986 193.675 26.4986C187.422 26.4986 184.404 22.7615 184.404 15.39C184.404 12.0505 184.928 9.50306 185.967 7.81928C187.417 5.47204 190.013 4.28248 193.675 4.28248C195.298 4.23898 196.913 4.5372 198.414 5.15777C199.69 5.71286 200.768 6.64015 201.509 7.81833C202.566 9.50115 203.102 12.0495 203.102 15.39H203.099ZM199.374 15.39C199.374 12.5611 198.958 10.596 198.142 9.55049C197.34 8.52629 195.838 8.00304 193.675 8.00304C191.675 8.00304 190.275 8.44021 189.516 9.30386C188.585 10.358 188.113 12.4045 188.113 15.3871C188.113 18.3698 188.596 20.3911 189.544 21.453C190.326 22.3235 191.715 22.7712 193.675 22.7712C195.808 22.7712 197.307 22.2413 198.124 21.1987C198.955 20.1329 199.374 18.1792 199.374 15.39ZM155.995 33.2085L153.184 29.3632H151.358L155.268 34.7028V38.2657H156.737V34.6873L160.666 29.368H158.833L155.995 33.2085ZM164.236 34.4388H168.222V32.9697H164.236V30.8323H169.964V29.3632H162.766V29.9435V38.2696H170.213V36.7947H164.238V34.4368L164.236 34.4388ZM177.524 29.3806L181.634 38.2657H180.038L179.039 36.1128H174.661L173.68 38.2657H172.082L176.137 29.3806H177.526H177.524ZM176.835 31.3362L175.324 34.6612H178.37L176.835 31.3362ZM189.685 34.5209L192.03 38.2715H190.271L190.256 38.2463L188.045 34.696H185.047V38.2744H183.56V29.3768H183.572V29.3642H188.287C189.132 29.3206 189.967 29.5745 190.645 30.0818C190.931 30.3184 191.158 30.6181 191.309 30.9573C191.46 31.2966 191.531 31.6663 191.515 32.0373C191.562 32.6027 191.403 33.166 191.067 33.6231C190.731 34.0801 190.241 34.4001 189.687 34.5238L189.685 34.5209ZM188.283 30.8565H185.043V33.2085H188.283C189.453 33.2085 190.024 32.8217 190.024 32.0354C190.024 31.2491 189.452 30.8594 188.282 30.8594L188.283 30.8565ZM200.895 33.5886C199.982 33.2407 199.024 33.0222 198.05 32.9397L197.516 32.872C196.92 32.8205 196.331 32.7067 195.758 32.5325C195.662 32.4922 195.581 32.4223 195.527 32.3329C195.473 32.2435 195.449 32.1393 195.459 32.0354C195.459 31.2046 196.243 30.7781 197.78 30.7781C198.863 30.8331 199.923 31.1114 200.893 31.5954L200.942 31.6176L201.522 30.3236L201.475 30.3014C200.321 29.733 199.062 29.4118 197.777 29.3584C196.88 29.3216 195.991 29.5439 195.216 29.9987C194.853 30.1976 194.551 30.4917 194.342 30.8496C194.133 31.2074 194.026 31.6154 194.032 32.0296C194.007 32.3844 194.09 32.7384 194.269 33.0456C194.448 33.3527 194.715 33.5989 195.036 33.7521C195.772 34.036 196.545 34.2113 197.33 34.2724L197.89 34.3459C198.68 34.41 199.459 34.5691 200.211 34.8198C200.36 34.8995 200.481 35.0224 200.559 35.1725C200.636 35.3225 200.667 35.4926 200.646 35.6603C200.646 36.434 199.754 36.8334 197.995 36.8334C196.736 36.7651 195.525 36.3278 194.513 35.5761L194.468 35.5461L193.679 36.727L193.723 36.757C194.969 37.6663 196.457 38.1859 197.998 38.2502C199.035 38.3046 200.067 38.0681 200.977 37.5674C201.318 37.3546 201.598 37.0567 201.79 36.7029C201.981 36.3492 202.077 35.9518 202.069 35.5496C202.06 35.1474 201.948 34.7543 201.742 34.4088C201.535 34.0634 201.243 33.7774 200.893 33.579L200.895 33.5886ZM157.49 43.966C157.49 42.1188 156.5 41.1826 154.548 41.1826C152.597 41.1826 151.602 42.1188 151.602 43.966C151.602 45.8132 152.593 46.7639 154.548 46.7639C156.504 46.7639 157.489 45.8258 157.489 43.9689L157.49 43.966ZM156.531 43.966C156.558 44.2216 156.533 44.48 156.459 44.7259C156.384 44.9718 156.261 45.2001 156.096 45.3974C155.646 45.7158 155.097 45.8608 154.548 45.8055C153.999 45.8616 153.448 45.7136 153.001 45.3897C152.835 45.1946 152.71 44.9679 152.634 44.7232C152.558 44.4784 152.532 44.2208 152.559 43.966C152.532 43.7131 152.558 43.4573 152.635 43.215C152.712 42.9726 152.838 42.7488 153.007 42.5578C153.452 42.2379 153.999 42.0902 154.545 42.142C155.879 42.142 156.528 42.7387 156.528 43.967L156.531 43.966ZM160.185 46.7707V44.437H162.705V43.437H160.187V42.1797H163.794V41.1758H159.19V46.7727H160.191L160.185 46.7707ZM169.222 46.7707V44.437H171.736V43.437H169.222V42.1797H172.828V41.1758H168.226V46.7727H169.226L169.222 46.7707ZM175.605 46.763V41.1816H174.589V46.763H175.605ZM183.105 46.763L181.647 44.4292C181.986 44.3422 182.283 44.1377 182.486 43.8521C182.688 43.5665 182.784 43.2183 182.754 42.8693C182.764 42.6342 182.719 42.4 182.623 42.1851C182.527 41.9701 182.383 41.7803 182.201 41.6304C181.775 41.3107 181.25 41.1506 180.717 41.1777H177.756V46.763H178.757V44.554H180.548L181.922 46.763H183.105ZM178.756 43.5569V42.1855H180.716C181.411 42.1855 181.748 42.4109 181.748 42.8732C181.748 43.3355 181.411 43.5569 180.716 43.5569H178.756ZM188.748 46.3306C188.965 46.1953 189.143 46.0059 189.265 45.7808C189.387 45.5558 189.448 45.303 189.442 45.0472C189.437 44.7915 189.364 44.5416 189.233 44.3222C189.101 44.1028 188.915 43.9214 188.692 43.7958C188.125 43.5769 187.529 43.4405 186.922 43.3906L186.592 43.349C186.228 43.3172 185.868 43.2482 185.518 43.143C185.466 43.1213 185.422 43.0833 185.393 43.0347C185.364 42.9862 185.351 42.9295 185.356 42.8732C185.356 42.3799 185.813 42.14 186.753 42.14C187.416 42.1741 188.065 42.3447 188.659 42.641L188.726 42.672L189.12 41.8016L189.053 41.7706C188.335 41.4171 187.552 41.2174 186.753 41.1845C186.191 41.1619 185.635 41.3012 185.15 41.5859C184.919 41.7127 184.728 41.8998 184.596 42.127C184.463 42.3543 184.395 42.6132 184.399 42.8761C184.383 43.1027 184.436 43.3288 184.551 43.525C184.665 43.7213 184.836 43.8786 185.041 43.9767C185.499 44.1554 185.981 44.2652 186.471 44.3026L186.815 44.348C187.299 44.3876 187.776 44.485 188.237 44.6382C188.321 44.685 188.39 44.7561 188.434 44.8423C188.477 44.9285 188.494 45.0258 188.482 45.1217C188.482 45.5753 187.945 45.8055 186.886 45.8055C186.117 45.7636 185.377 45.4966 184.759 45.0376L184.698 44.997L184.165 45.7949L184.227 45.8355C185.003 46.4018 185.929 46.7253 186.888 46.7649C187.537 46.7987 188.182 46.6503 188.751 46.3365L188.748 46.3306ZM193.579 46.7668V42.1865H195.719V41.1894H190.432V42.1865H192.581V46.7668H193.579ZM201.135 46.3306C201.352 46.1954 201.531 46.006 201.652 45.781C201.774 45.556 201.835 45.3033 201.829 45.0475C201.824 44.7918 201.752 44.5419 201.621 44.3224C201.489 44.1029 201.303 43.9215 201.08 43.7958C200.512 43.5767 199.916 43.4403 199.309 43.3906L198.98 43.349C198.616 43.3172 198.256 43.2482 197.905 43.143C197.853 43.1213 197.809 43.0833 197.78 43.0347C197.75 42.9862 197.738 42.9295 197.744 42.8732C197.744 42.3799 198.201 42.14 199.14 42.14C199.803 42.174 200.452 42.3446 201.046 42.641L201.113 42.672L201.508 41.8016L201.44 41.7706C200.722 41.4172 199.939 41.2176 199.14 41.1845C198.578 41.1618 198.022 41.3011 197.538 41.5859C197.307 41.7121 197.115 41.899 196.982 42.1264C196.85 42.3538 196.782 42.613 196.786 42.8761C196.77 43.103 196.824 43.3293 196.938 43.5256C197.053 43.7219 197.225 43.8791 197.43 43.9767C197.888 44.1557 198.37 44.2655 198.86 44.3026L199.204 44.348C199.687 44.3878 200.164 44.4852 200.625 44.6382C200.709 44.685 200.778 44.7561 200.822 44.8423C200.865 44.9285 200.882 45.0258 200.87 45.1217C200.87 45.5753 200.332 45.8055 199.274 45.8055C198.505 45.7634 197.765 45.4963 197.146 45.0376L197.084 44.997L196.551 45.7949L196.613 45.8355C197.389 46.4019 198.316 46.7253 199.276 46.7649C199.924 46.7987 200.569 46.6503 201.138 46.3365L201.135 46.3306Z" fill="black"/>
    <path d="M85.2414 30.5749L78.8331 23.4248L78.6591 23.2314H77.1669V34.014H79.0693V26.5438L85.7743 34.0072H87.1419V23.2236H85.2395L85.2414 30.5749Z" fill="black"/>
    <path d="M60.8957 23.2344H58.9933V34.02H67.3929V32.1988H60.8957V23.2344Z" fill="black"/>
    <path d="M72.3785 23.2344H70.4762V34.017H72.3785V23.2344Z" fill="black"/>
    <path d="M96.5589 27.8448V29.5857H99.7271V31.6998C98.6719 32.459 96.3936 32.3294 96.3936 32.3294C94.2901 32.3294 92.3489 31.43 92.3489 28.7395C92.3339 28.2116 92.4295 27.6864 92.6296 27.1977C92.8298 26.7091 93.1299 26.2677 93.5108 25.902C93.8918 25.5364 94.3451 25.2545 94.8416 25.0746C95.338 24.8946 95.8668 24.8207 96.3936 24.8573C97.6206 24.8199 98.8353 25.1122 99.911 25.7036L100.693 24.0217C99.3663 23.3343 97.8863 22.9954 96.3924 23.0371C92.7666 23.0371 90.4446 25.1426 90.4446 28.7432C90.4446 32.3439 92.9803 34.1525 96.3924 34.1525C100.079 34.1525 101.629 32.7328 101.629 32.6235V27.8516H96.5579L96.5589 27.8448Z" fill="black"/>
    <path d="M8.84932 28.3226C9.17328 28.085 9.43072 27.7679 9.59687 27.4021C9.76301 27.0363 9.83231 26.6339 9.7981 26.2336C9.7981 24.0604 8.62494 23.2209 6.10652 23.2209H0V34.0083H6.80868C9.73716 34.0083 10.3977 32.401 10.3977 30.7027C10.4013 30.198 10.2565 29.7034 9.98138 29.2803C9.70629 28.8572 9.31201 28.5242 8.84932 28.3226ZM1.86273 24.9241H6.03397C7.1839 24.9241 7.92085 25.3844 7.92085 26.2781C7.94424 26.475 7.92253 26.6746 7.85733 26.8619C7.79213 27.0491 7.68517 27.2191 7.54453 27.3589C7.4039 27.4987 7.23327 27.6046 7.04562 27.6687C6.85797 27.7328 6.65823 27.7534 6.46146 27.7288H1.86273V24.9241ZM6.80962 32.3043H1.86273V29.4338H6.55237C7.5756 29.4338 8.45471 29.6582 8.45471 30.8796C8.45471 32.1011 7.41795 32.3043 6.80962 32.3043Z" fill="black"/>
    <path d="M23.748 26.3805C23.748 23.7954 21.7373 23.2344 19.8669 23.2344H13.9025V34.017H15.8049V29.574H18.627L21.4085 34.0092H23.6532L20.7663 29.5749C21.1757 29.5744 21.5805 29.4899 21.9558 29.3266C22.3312 29.1632 22.6689 28.9245 22.9482 28.6253C23.2276 28.3261 23.4426 27.9727 23.5798 27.5871C23.717 27.2014 23.7736 26.7917 23.7461 26.3834M15.8049 27.8341V24.9704H19.8921C20.6126 24.9704 21.8505 25.1638 21.8505 26.5284C21.8505 27.6784 20.7247 27.8351 19.8804 27.8351H15.8059" fill="black"/>
    <path d="M29.2868 29.5005H34.4997V27.7596H29.2868V25.0517H36.4717V23.2324H27.3806V34.0074H36.4784V32.1872H29.2829L29.2868 29.5005Z" fill="black"/>
    <path d="M41.8809 23.2334H39.9785V34.0054H41.8809V23.2334Z" fill="black"/>
    <path d="M45.4003 25.0496H49.4187V34.0141H51.3211V25.0496H55.3386V23.2305H45.4003V25.0496Z" fill="black"/>
    <path d="M56.6471 3.01445C55.4111 2.42933 53.6614 2.72429 52.0657 3.30457V3.29879C52.2075 2.34983 52.1328 1.38108 51.8471 0.465088L50.0241 0.977639C50.1852 2.05003 50.2257 3.13711 50.145 4.21852C45.4186 6.95262 42.2338 11.5262 41.3547 14.6017C40.3972 17.9519 43.0675 19.0902 45.3141 17.4412C50.8607 13.3705 51.9874 4.10731 51.9874 4.10731C52.6041 3.85528 53.2744 3.76319 53.9362 3.83962C54.598 3.91604 55.2297 4.15853 55.7727 4.54448C57.7379 6.23697 55.1876 8.83857 55.1876 8.83857C54.6827 8.32346 54.0075 8.00986 53.2882 7.9565C51.3017 7.77758 50.2901 10.1635 52.9294 10.4188C53.626 10.4315 54.319 10.3161 54.9739 10.0784C55.4149 10.8947 55.2814 14.6752 52.7292 15.7932C50.437 16.7971 49.586 15.388 49.586 15.388C49.1191 15.8864 48.7281 16.4508 48.4254 17.0631C48.8769 17.6265 49.4967 18.0308 50.1942 18.217C50.8918 18.4031 51.6305 18.3614 52.3026 18.0979C53.1574 17.7914 53.9308 17.2932 54.5633 16.6416C55.1958 15.99 55.6707 15.2022 55.9517 14.3386C56.2756 13.6078 56.4348 12.8147 56.4181 12.0155C56.4014 11.2162 56.2092 10.4304 55.855 9.7138C59.3464 7.27565 58.8337 3.96128 56.648 3.01929M44.551 16.7807C42.609 17.301 43.1245 13.0398 45.5887 9.63641C48.1033 6.16826 50.0705 5.12669 50.0705 5.12669C49.6449 10.1906 46.6198 16.2265 44.5521 16.7797M52.3549 9.47975C51.793 9.13351 52.3452 8.61609 52.8685 8.61609C53.4683 8.67586 54.0315 8.93263 54.47 9.34628C54.47 9.34628 53.0193 9.88885 52.3549 9.47975Z" fill="black"/>
    <path d="M38.8208 39.4792H37.287V47.4059H38.8208V39.4792Z" fill="black"/>
    <path d="M55.2195 43.2821L55.0377 43.1496L55.2022 42.9948C55.5631 42.6661 55.7909 42.2163 55.8424 41.7308C55.8752 41.4592 55.849 41.1837 55.7655 40.9232C55.6821 40.6626 55.5434 40.4231 55.3588 40.2211C54.5345 39.6006 53.5307 39.2651 52.499 39.2651C51.4672 39.2651 50.4636 39.6006 49.6392 40.2211C49.4548 40.4231 49.316 40.6626 49.2325 40.9232C49.1491 41.1837 49.1229 41.4592 49.1557 41.7308C49.2088 42.2134 49.4356 42.6604 49.7939 42.9881L49.9584 43.1429L49.7765 43.2754C49.6517 43.3631 49.5364 43.4635 49.4323 43.5751C49.2284 43.8017 49.075 44.0692 48.9825 44.3597C48.8899 44.6502 48.8603 44.9571 48.8955 45.2599C48.9922 46.3634 49.9864 47.5433 52.4893 47.5433H52.4961C55.0001 47.5433 55.9953 46.3634 56.092 45.259C56.1271 44.9564 56.0975 44.6497 56.0051 44.3594C55.9127 44.0691 55.7597 43.8018 55.5561 43.5751C55.4529 43.4646 55.339 43.3648 55.2157 43.2772M54.4613 41.5829C54.4169 42.0142 53.7921 42.4533 52.4971 42.4533C51.2021 42.4533 50.5802 42.0181 50.5347 41.5877C50.522 41.5091 50.5272 41.4286 50.5498 41.3523C50.5724 41.276 50.6119 41.2057 50.6653 41.1466C51.2211 40.8207 51.8537 40.6489 52.498 40.6489C53.1423 40.6489 53.775 40.8207 54.3308 41.1466C54.3844 41.2051 54.4241 41.275 54.4467 41.3511C54.4693 41.4272 54.4743 41.5074 54.4613 41.5857M50.4526 44.5133C51.0454 44.0907 51.772 43.8988 52.4961 43.9735C53.2166 43.925 53.9331 44.1151 54.5349 44.5143C54.6093 44.5993 54.6637 44.6998 54.6943 44.8086C54.7249 44.9173 54.7309 45.0316 54.7119 45.1429C54.6461 45.8954 53.5213 46.1622 52.4874 46.1622C51.4535 46.1622 50.3374 45.8954 50.2726 45.1429C50.2532 45.0316 50.2591 44.9174 50.2895 44.8086C50.32 44.6998 50.3743 44.5993 50.4487 44.5143" fill="black"/>
    <path d="M63.0959 44.4233V39.4792H59.4837L57.2128 44.4261L57.2031 45.8072H61.711V47.4011H63.0959V45.8072H64.0012V44.4222L63.0959 44.4233ZM58.7371 44.4233L60.3677 40.8739H61.711V44.4233H58.7371Z" fill="black"/>
    <path d="M46.9072 43.2822L46.7253 43.1497L46.8897 42.995C47.2509 42.6664 47.4787 42.2165 47.5299 41.7309C47.5628 41.4593 47.5367 41.1838 47.4532 40.9233C47.3697 40.6627 47.2309 40.4232 47.0464 40.2212C46.2218 39.6008 45.2179 39.2654 44.186 39.2654C43.1542 39.2654 42.1504 39.6008 41.3258 40.2212C41.1414 40.4233 41.0027 40.6627 40.9192 40.9233C40.8358 41.1838 40.8096 41.4593 40.8423 41.7309C40.8946 42.2136 41.1211 42.6607 41.4796 42.9882L41.6431 43.143L41.4611 43.2755C41.3364 43.3633 41.2211 43.4637 41.1169 43.5752C40.9128 43.8017 40.7594 44.0692 40.667 44.3597C40.5746 44.6503 40.5453 44.9573 40.5811 45.26C40.6778 46.3645 41.6691 47.5444 44.175 47.5444H44.1818C46.6857 47.5444 47.6799 46.3645 47.7766 45.26C47.8118 44.9573 47.7823 44.6505 47.6899 44.3601C47.5975 44.0696 47.4444 43.802 47.2408 43.5752C47.1378 43.4646 47.0236 43.3648 46.9003 43.2774M46.147 41.582C46.1015 42.0134 45.4768 42.4524 44.1827 42.4524C42.8887 42.4524 42.2649 42.0173 42.2194 41.5869C42.2066 41.5083 42.2117 41.4277 42.2343 41.3514C42.2569 41.275 42.2964 41.2048 42.35 41.1458C42.9057 40.8201 43.5382 40.6483 44.1823 40.6483C44.8264 40.6483 45.4588 40.8201 46.0144 41.1458C46.0686 41.204 46.1087 41.2738 46.1317 41.3499C46.1546 41.4261 46.1599 41.5064 46.147 41.5849M42.1373 44.5134C42.7291 44.0864 43.4582 43.8937 44.1837 43.9727C44.9041 43.9246 45.6205 44.1147 46.2224 44.5134C46.2967 44.5987 46.3511 44.6995 46.3817 44.8084C46.4123 44.9172 46.4183 45.0315 46.3994 45.143C46.3346 45.8955 45.2088 46.1624 44.175 46.1624C43.1411 46.1624 42.024 45.8955 41.9592 45.143C41.9402 45.0318 41.9461 44.9175 41.9766 44.8088C42.007 44.7001 42.0612 44.5996 42.1353 44.5144" fill="black"/>
    <path d="M127.122 0H126.685V52H127.122V0Z" fill="black"/>
</svg>
